<svg width="25" height="25" viewBox="0 0 25 25" fill="none" xmlns="http://www.w3.org/2000/svg">
<path d="M21.78 0.320068H3.22001C1.62095 0.320068 0.320007 1.62101 0.320007 3.22007V21.7801C0.320007 23.3791 1.62095 24.6801 3.22001 24.6801H21.78C23.3791 24.6801 24.68 23.3791 24.68 21.7801V3.22007C24.68 1.62101 23.3791 0.320068 21.78 0.320068ZM19.4635 10.9474C19.3318 10.9596 19.1984 10.9677 19.0633 10.9677C17.5419 10.9677 16.205 10.1853 15.4273 9.00267C15.4273 12.1051 15.4273 15.635 15.4273 15.6941C15.4273 18.4253 13.2128 20.6398 10.4816 20.6398C7.75039 20.6398 5.53595 18.4253 5.53595 15.6941C5.53595 12.9629 7.75039 10.7485 10.4816 10.7485C10.5848 10.7485 10.6858 10.7577 10.7873 10.7641V13.2013C10.6858 13.1891 10.586 13.1705 10.4816 13.1705C9.08729 13.1705 7.95745 14.3004 7.95745 15.6947C7.95745 17.089 9.08729 18.2189 10.4816 18.2189C11.8759 18.2189 13.1073 17.1203 13.1073 15.726C13.1073 15.6709 13.1316 4.36151 13.1316 4.36151H15.4609C15.6801 6.44429 17.3616 8.08801 19.4635 8.23881V10.9474Z" fill="white"/>
</svg>
