<svg width="180" height="53" viewBox="0 0 180 53" fill="none" xmlns="http://www.w3.org/2000/svg">
<g clip-path="url(#clip0_31_28)">
<path d="M82.5856 44.2834C82.2404 44.6816 81.8229 45.0106 81.3551 45.2531C80.8703 45.5081 80.3302 45.6399 79.7825 45.637C79.2827 45.6393 78.7884 45.5339 78.3329 45.3281C77.8872 45.1272 77.4841 44.8428 77.1455 44.4901C76.8043 44.1298 76.5331 43.7092 76.3457 43.2498C75.9502 42.2881 75.9502 41.2091 76.3457 40.2474C76.5343 39.7915 76.8054 39.3743 77.1455 39.0168C77.4848 38.665 77.8877 38.3806 78.3329 38.1789C78.7887 37.9742 79.2829 37.8689 79.7825 37.87C80.2485 37.8684 80.7097 37.9648 81.136 38.153C81.5409 38.3341 81.9146 38.5779 82.2435 38.8753L81.6209 39.6739C81.3841 39.4315 81.1099 39.2288 80.8087 39.0735C80.4902 38.9109 80.1376 38.8265 79.78 38.8274C79.4193 38.8259 79.063 38.9063 78.7378 39.0624C78.418 39.2174 78.1316 39.4335 77.8949 39.6985C77.6532 39.9747 77.4597 40.2896 77.3227 40.63C77.0421 41.3549 77.0421 42.1583 77.3227 42.8831C77.4594 43.2211 77.653 43.5332 77.8949 43.806C78.132 44.068 78.4184 44.2809 78.7378 44.4323C79.064 44.5848 79.42 44.6629 79.78 44.6612C80.1906 44.663 80.5947 44.5583 80.9527 44.3573C81.2993 44.161 81.602 43.896 81.8424 43.5783L82.5856 44.2834Z" fill="black"/>
<path d="M98.1946 40.2376C98.0033 39.7813 97.7297 39.3642 97.3874 39.0071C97.0483 38.6544 96.6448 38.3699 96.1987 38.1691C95.7418 37.9657 95.2474 37.8606 94.7473 37.8606C94.2472 37.8606 93.7527 37.9657 93.2959 38.1691C92.8487 38.3705 92.4437 38.6548 92.1023 39.0071C91.7588 39.3633 91.485 39.7806 91.2951 40.2376C90.9046 41.2007 90.9046 42.2781 91.2951 43.2412C91.4827 43.6977 91.754 44.115 92.0949 44.4718C92.4348 44.8246 92.8391 45.109 93.2861 45.3097C93.742 45.5142 94.236 45.6199 94.7356 45.6199C95.2352 45.6199 95.7292 45.5142 96.1851 45.3097C96.6332 45.1085 97.0391 44.8242 97.3812 44.4718C97.7264 44.1159 98.0018 43.6985 98.1933 43.2412C98.3909 42.7652 98.4927 42.2549 98.4929 41.7395C98.4931 41.2241 98.3917 40.7138 98.1946 40.2376ZM97.2003 42.8622C97.0704 43.2018 96.878 43.514 96.633 43.7827C96.3946 44.0415 96.1073 44.2506 95.7877 44.3979C95.4585 44.5445 95.1021 44.6202 94.7418 44.6202C94.3814 44.6202 94.025 44.5445 93.6958 44.3979C93.3762 44.2506 93.0889 44.0415 92.8505 43.7827C92.6057 43.513 92.4118 43.2011 92.2783 42.8622C91.9928 42.1409 91.9928 41.3379 92.2783 40.6166C92.4124 40.2799 92.6063 39.9701 92.8505 39.7023C93.0889 39.4435 93.3762 39.2344 93.6958 39.087C94.025 38.9405 94.3814 38.8647 94.7418 38.8647C95.1021 38.8647 95.4585 38.9405 95.7877 39.087C96.1073 39.2344 96.3946 39.4435 96.633 39.7023C96.8769 39.9695 97.0692 40.2795 97.2003 40.6166C97.3389 40.9744 97.4086 41.3551 97.4058 41.7388C97.4079 42.1241 97.3378 42.5064 97.1991 42.8659L97.2003 42.8622Z" fill="black"/>
<path d="M112.418 37.9636V42.861C112.42 43.2322 112.346 43.5998 112.201 43.9414C112.062 44.2696 111.861 44.5685 111.611 44.8225C111.361 45.0758 111.064 45.2781 110.737 45.418C110.398 45.5626 110.033 45.6371 109.664 45.6371C109.295 45.6371 108.929 45.5626 108.59 45.418C108.263 45.2781 107.966 45.0758 107.716 44.8225C107.467 44.5678 107.266 44.2691 107.126 43.9414C106.981 43.5998 106.907 43.2322 106.909 42.861V37.9636H107.973V42.861C107.973 43.0899 108.018 43.3165 108.105 43.528C108.191 43.7361 108.313 43.9273 108.466 44.0928C108.619 44.2566 108.803 44.3891 109.007 44.4829C109.215 44.5777 109.442 44.626 109.67 44.6244C109.897 44.6258 110.121 44.5775 110.327 44.4829C110.529 44.3879 110.71 44.2555 110.861 44.0928C111.016 43.9285 111.138 43.737 111.222 43.528C111.309 43.3165 111.354 43.0899 111.354 42.861V37.9636H112.418Z" fill="black"/>
<path d="M126.047 37.9636V38.9087H123.969V45.5288H122.902V38.9087H120.837V37.9636H126.047Z" fill="black"/>
<path d="M139.972 37.9636V42.861C139.974 43.2322 139.9 43.5998 139.755 43.9414C139.613 44.2692 139.412 44.5679 139.162 44.8225C138.913 45.0762 138.617 45.2786 138.291 45.418C137.951 45.5626 137.586 45.6371 137.217 45.6371C136.848 45.6371 136.483 45.5626 136.143 45.418C135.816 45.2781 135.52 45.0758 135.27 44.8225C135.02 44.5681 134.819 44.2693 134.679 43.9414C134.533 43.6 134.459 43.2323 134.46 42.861V37.9636H135.527V42.861C135.526 43.0899 135.571 43.3165 135.659 43.528C135.743 43.7364 135.864 43.9278 136.017 44.0928C136.171 44.256 136.354 44.3884 136.558 44.4829C136.766 44.5772 136.993 44.6254 137.221 44.6244C137.448 44.6262 137.673 44.5779 137.878 44.4829C138.081 44.3888 138.263 44.2563 138.415 44.0928C138.568 43.9273 138.69 43.7361 138.776 43.528C138.863 43.3165 138.908 43.0899 138.907 42.861V37.9636H139.972Z" fill="black"/>
<path d="M152.015 42.1535L152.059 42.14C152.282 42.0769 152.493 41.9789 152.685 41.8496C152.872 41.7216 153.038 41.566 153.177 41.3881C153.316 41.2088 153.426 41.0086 153.502 40.795C153.581 40.5695 153.62 40.3323 153.618 40.0936C153.62 39.8079 153.562 39.525 153.448 39.263C153.338 39.011 153.182 38.7822 152.987 38.5887C152.787 38.3959 152.554 38.2412 152.299 38.1322C152.032 38.021 151.745 37.9641 151.456 37.9649H148.388V45.5288H149.453V42.2359H150.837L150.844 42.2483L153.236 45.5288H154.564L152.015 42.1535ZM151.456 41.2454L149.453 41.2565V38.9H151.456C151.608 38.8998 151.759 38.9312 151.899 38.9923C152.034 39.0541 152.156 39.1409 152.259 39.2483C152.359 39.3569 152.439 39.4818 152.497 39.6174C152.556 39.7609 152.586 39.915 152.584 40.0703C152.586 40.2275 152.556 40.3835 152.497 40.5292C152.439 40.6667 152.355 40.792 152.251 40.8984C152.149 41.0035 152.027 41.0872 151.893 41.1445C151.756 41.209 151.607 41.2435 151.456 41.2454Z" fill="black"/>
<path d="M163.106 38.9087V41.051H166.259V42.0305H163.106V44.5493H166.649V45.5288H162.042V37.9636H166.649V38.9087H163.106Z" fill="black"/>
<path d="M180 9.96226V6.61035H170.701H167.349V27.0516H170.402H179.995V23.6997H170.701V18.0073H178.947V14.6566H170.701V9.96226H180Z" fill="black"/>
<path d="M162.113 6.61035H158.763V27.0503H162.113V6.61035Z" fill="black"/>
<path d="M153.239 25.2758C152.707 25.2895 152.181 25.1693 151.708 24.9264C151.243 24.664 150.831 24.3167 150.494 23.9026C150.075 23.3965 149.71 22.849 149.403 22.2685C149.079 21.6704 148.716 20.9617 148.296 20.1077C148.084 19.6856 147.853 19.234 147.572 18.6951C147.399 18.3628 147.213 18.0404 147.025 17.7365L146.873 17.4904L147.069 17.2738C147.267 17.0573 147.464 16.8272 147.657 16.5884C147.964 16.2033 148.273 15.8071 148.559 15.4096C149.499 14.0741 150.256 12.6196 150.812 11.0844C151.32 9.7012 151.586 8.24106 151.599 6.76775V6.60779H148.196V6.76775C148.179 7.88955 147.974 9.00055 147.59 10.0544C147.157 11.2662 146.553 12.4102 145.798 13.4519C145.579 13.7361 145.376 14.0019 145.174 14.2542L145.136 14.3058C145.092 14.3575 145.051 14.4117 145.013 14.4658L144.767 14.7587L144.47 14.5126C144.404 14.456 144.334 14.4018 144.267 14.3501C144.015 14.1549 143.752 13.9725 143.481 13.8038C143.253 13.6532 143.014 13.5207 142.766 13.4076C141.758 12.8945 141.117 12.8268 141.117 12.8268V6.61025H137.779V12.6914C137.779 12.6914 137.691 12.7123 137.544 12.7616C137.506 12.7721 137.469 12.7848 137.433 12.7997L137.335 12.8366C137.179 12.897 137.028 12.9682 136.882 13.0495L136.759 13.1221C136.718 13.1479 136.674 13.1713 136.636 13.1996C136.115 13.5474 135.679 14.0084 135.361 14.548C135.043 15.0877 134.85 15.6922 134.798 16.3165C134.785 16.458 134.778 16.5995 134.778 16.7435C134.778 16.8518 134.778 16.9576 134.79 17.0585C134.792 17.124 134.798 17.1893 134.808 17.2541C134.874 17.9299 135.103 18.5793 135.478 19.1456C135.852 19.7119 136.359 20.1779 136.956 20.5027C136.968 20.5069 136.98 20.5127 136.991 20.5199C137.05 20.5482 137.114 20.5765 137.17 20.6024C137.29 20.6562 137.413 20.7038 137.539 20.7451L137.578 20.7574C137.619 20.7709 137.658 20.7808 137.701 20.7931C137.744 20.8054 137.75 20.8066 137.776 20.8115V27.0515H141.115V20.7956C141.937 20.7073 142.738 20.4788 143.483 20.12L143.519 20.1052C143.542 20.0919 143.565 20.08 143.589 20.0696C143.824 19.9504 144.052 19.8186 144.272 19.6746L144.463 20.0326C144.545 20.1852 144.625 20.3366 144.709 20.4867C144.897 20.8558 145.077 21.2311 145.248 21.6126L145.258 21.636C145.644 22.41 146.063 23.211 146.488 24.0084C146.926 24.8254 147.461 25.5868 148.081 26.2762C148.704 26.9641 149.442 27.5391 150.261 27.9756C151.102 28.4235 152.107 28.6499 153.239 28.6499H153.528V25.2758H153.239ZM142.762 17.1434C142.59 17.2357 142.393 17.3341 142.157 17.435C141.837 17.5737 141.512 17.6967 141.182 17.8042C140.859 17.908 140.531 17.9934 140.198 18.0601C139.908 18.1201 139.612 18.1526 139.316 18.1573C139.278 18.1573 139.153 18.1573 139.115 18.1573C138.437 18.1573 137.885 17.5704 137.877 16.8432V16.8272C137.878 16.7662 137.882 16.7054 137.891 16.645C137.892 16.6164 137.897 16.588 137.903 16.5601C137.93 16.3906 137.992 16.2287 138.086 16.0852C138.11 16.0495 138.136 16.0126 138.161 15.9793C138.186 15.9442 138.215 15.9116 138.246 15.8821C138.304 15.817 138.37 15.7595 138.442 15.7111C138.62 15.5862 138.83 15.5145 139.047 15.5044C139.086 15.5044 139.17 15.5044 139.189 15.5044C139.89 15.5183 140.58 15.6775 141.217 15.972C141.779 16.2032 142.306 16.5126 142.782 16.8911C142.844 16.9404 142.905 16.992 142.96 17.0437C142.896 17.0683 142.832 17.104 142.762 17.1434Z" fill="black"/>
<path d="M128.758 12.8613C128.263 11.6595 127.552 10.5588 126.66 9.61397C125.773 8.68482 124.715 7.93639 123.543 7.41013C122.354 6.87956 121.066 6.60535 119.764 6.60535C118.462 6.60535 117.174 6.87956 115.985 7.41013C114.82 7.93419 113.769 8.68215 112.892 9.61151C112.003 10.5589 111.294 11.6601 110.8 12.8613C110.285 14.1098 110.024 15.4484 110.032 16.7989C110.028 18.149 110.289 19.4868 110.8 20.7365C111.291 21.9472 112 23.0574 112.892 24.0122C113.772 24.9435 114.824 25.6956 115.99 26.2271C117.176 26.7655 118.463 27.0441 119.765 27.0441C121.068 27.0441 122.355 26.7655 123.541 26.2271C124.71 25.6934 125.767 24.9417 126.655 24.0122C127.551 23.0593 128.262 21.9487 128.753 20.7365C129.264 19.4869 129.525 18.1491 129.521 16.7989C129.531 15.4487 129.271 14.1101 128.758 12.8613ZM125.605 19.4556C125.294 20.2544 124.838 20.9892 124.262 21.6237C123.698 22.2443 123.018 22.7481 122.26 23.1065C121.485 23.468 120.64 23.6553 119.785 23.6553C118.93 23.6553 118.085 23.468 117.31 23.1065C116.551 22.7481 115.87 22.2443 115.305 21.6237C114.109 20.3038 113.455 18.5812 113.474 16.8001C113.469 15.8879 113.636 14.983 113.966 14.1324C114.277 13.3287 114.732 12.5889 115.31 11.9495C115.874 11.3276 116.553 10.8215 117.31 10.4593C118.086 10.0994 118.93 9.91296 119.785 9.91296C120.64 9.91296 121.484 10.0994 122.26 10.4593C123.017 10.8195 123.697 11.324 124.262 11.9446C124.84 12.5836 125.297 13.3235 125.608 14.1275C125.937 14.9781 126.104 15.883 126.1 16.7952C126.105 17.7053 125.937 18.6082 125.605 19.4556Z" fill="black"/>
<path d="M104.039 12.8613C103.547 11.66 102.838 10.5593 101.948 9.61397C101.063 8.68505 100.006 7.93662 98.8356 7.41013C97.6465 6.87956 96.3589 6.60535 95.0567 6.60535C93.7546 6.60535 92.467 6.87956 91.2778 7.41013C90.1104 7.9338 89.0572 8.68176 88.1782 9.61151C87.2916 10.559 86.5852 11.6603 86.0937 12.8613C85.5781 14.1096 85.3166 15.4483 85.3246 16.7989C85.3206 18.1492 85.5819 19.4871 86.0937 20.7365C86.582 21.9469 87.2886 23.0572 88.1782 24.0122C89.0584 24.9435 90.1106 25.6956 91.2766 26.2271C92.4624 26.7655 93.7495 27.0441 95.0518 27.0441C96.3541 27.0441 97.6413 26.7655 98.827 26.2271C99.9967 25.6937 101.054 24.9419 101.941 24.0122C102.835 23.0588 103.544 21.9482 104.033 20.7365C104.544 19.4869 104.805 18.1491 104.801 16.7989C104.811 15.4488 104.553 14.1102 104.039 12.8613ZM100.887 19.4556C100.577 20.254 100.123 20.9888 99.5481 21.6237C98.9838 22.2443 98.3032 22.7481 97.5448 23.1065C96.7699 23.468 95.9253 23.6553 95.0703 23.6553C94.2152 23.6553 93.3706 23.468 92.5957 23.1065C91.8366 22.7481 91.1552 22.2443 90.59 21.6237C89.3978 20.3016 88.7448 18.5804 88.7602 16.8001C88.7559 15.8879 88.9229 14.983 89.2524 14.1324C89.5618 13.3284 90.017 12.5883 90.5949 11.9495C91.1577 11.328 91.836 10.8219 92.592 10.4593C93.3673 10.0994 94.2118 9.91296 95.0666 9.91296C95.9214 9.91296 96.7658 10.0994 97.5411 10.4593C98.3008 10.8206 98.9826 11.3268 99.5481 11.9495C100.126 12.5886 100.582 13.3285 100.893 14.1324C101.223 14.983 101.39 15.8879 101.385 16.8001C101.389 17.7089 101.22 18.61 100.887 19.4556Z" fill="black"/>
<path d="M80.0901 23.0979C79.1332 24.2801 77.9475 25.2569 76.6041 25.9699C75.2705 26.674 73.7868 27.0462 72.2788 27.0552C70.9873 27.0626 69.7101 26.7836 68.5393 26.2382C67.388 25.7037 66.3509 24.9515 65.4852 24.0232C64.608 23.0735 63.9157 21.9685 63.4438 20.7649C62.9476 19.5032 62.697 18.1583 62.7055 16.8026C62.6972 15.4523 62.9574 14.1139 63.4708 12.865C63.9669 11.6647 64.6755 10.5638 65.5627 9.61522C66.439 8.6856 67.4897 7.93758 68.655 7.41384C69.8429 6.87819 71.132 6.60376 72.4351 6.60908C73.6506 6.60479 74.8549 6.84064 75.979 7.30309C76.9794 7.71531 77.9773 8.3884 78.9531 9.30267L77.004 11.6579C76.2792 11.0426 75.5729 10.6144 74.9035 10.3744C74.109 10.0888 73.2708 9.94385 72.4265 9.94622C71.5655 9.94316 70.7143 10.1297 69.9335 10.4926C69.171 10.8473 68.4838 11.3453 67.9093 11.9593C67.3253 12.592 66.866 13.3293 66.5557 14.1324C66.2251 14.9827 66.0581 15.8878 66.0635 16.8002C66.0567 17.7086 66.2238 18.61 66.5557 19.4556C66.8677 20.2545 67.3236 20.9893 67.9007 21.6237C68.4712 22.2481 69.1601 22.753 69.9273 23.109C70.708 23.4725 71.5592 23.659 72.4203 23.6553C73.4531 23.6504 74.4715 23.4123 75.3994 22.9588C76.2374 22.5589 77.0852 21.9203 77.9281 21.054L80.0901 23.0979Z" fill="black"/>
<path d="M52.2154 25.1676C52.2136 25.1303 52.2037 25.0939 52.1863 25.0609C52.169 25.0278 52.1446 24.999 52.115 24.9764C52.0853 24.9538 52.0511 24.9379 52.0146 24.9299C51.9782 24.9219 51.9405 24.922 51.9041 24.9301C50.8862 25.1315 49.8345 25.08 48.8413 24.7799C47.7504 24.4489 46.7681 23.8317 45.9964 22.9926C45.2247 22.1534 44.6919 21.1228 44.4533 20.008C44.373 19.633 44.1664 19.297 43.8681 19.056C43.5698 18.815 43.1978 18.6837 42.8143 18.684H42.7811C41.1998 18.6848 39.6463 18.2682 38.2776 17.4762C36.9089 16.6843 35.7736 15.5451 34.9863 14.1737C34.1989 12.8023 33.7876 11.2474 33.7938 9.66617C33.8 8.08489 34.2235 6.53327 35.0215 5.16811C35.5524 4.26658 36.2347 3.46321 37.0383 2.79323C37.0709 2.76525 37.0959 2.72951 37.1111 2.68932C37.1262 2.64913 37.131 2.60576 37.125 2.56323C37.119 2.52069 37.1024 2.48036 37.0767 2.44593C37.051 2.4115 37.0171 2.3841 36.978 2.36624C36.0181 1.92429 35.0318 1.5421 34.0248 1.22187C33.9778 1.20735 33.9277 1.20622 33.8801 1.21861C33.8325 1.231 33.7892 1.25642 33.7553 1.29201C32.9815 2.12424 32.3249 3.05821 31.8037 4.06803C30.8938 5.84324 30.4279 7.81258 30.4458 9.80731C30.4637 11.802 30.965 13.7627 31.9066 15.5213C32.8483 17.2798 34.2022 18.7839 35.8525 19.9046C37.5028 21.0253 39.4001 21.7291 41.382 21.9559C41.428 21.9615 41.4716 21.9796 41.508 22.0083C41.5445 22.0369 41.5724 22.075 41.5887 22.1184C42.2837 23.9642 43.5248 25.5544 45.1466 26.6769C46.7684 27.7995 48.6938 28.401 50.6662 28.4013C51.0899 28.401 51.5132 28.3739 51.9336 28.3201C51.9922 28.312 52.0462 28.2841 52.0869 28.2412C52.1276 28.1983 52.1525 28.1428 52.1575 28.0839C52.2076 27.4342 52.233 26.7779 52.2338 26.115C52.2338 25.7976 52.2277 25.4817 52.2154 25.1676Z" fill="black"/>
<path d="M43.7372 29.7501C41.9985 38.1901 34.3312 44.4928 25.2931 44.0867C15.9105 43.6659 8.36745 35.9518 8.13366 26.5618C7.88756 16.4396 16.0507 8.12756 26.1175 8.12756C26.4707 8.12756 26.8189 8.13864 27.1672 8.15833C27.1339 8.50656 27.1106 8.85972 27.0995 9.21533C26.7713 9.194 26.4375 9.18375 26.0978 9.18457C17.3342 9.19564 9.9302 16.0077 9.23988 24.7443C8.45113 34.7004 16.3288 43.0494 26.1175 43.0494C34.437 43.0494 41.3758 37.0137 42.786 29.093C43.0924 29.3268 43.4099 29.547 43.7372 29.7501Z" fill="black"/>
<path d="M51.6137 31.7176C51.615 31.7175 51.6164 31.7178 51.6177 31.7184C51.6189 31.719 51.62 31.7198 51.6208 31.7209C51.6217 31.722 51.6222 31.7233 51.6225 31.7246C51.6227 31.726 51.6227 31.7274 51.6223 31.7287C49.0505 43.4431 38.59 52.2339 26.1175 52.2339C11.7157 52.2339 0 40.517 0 26.1151C0 11.7132 11.7157 1.0961e-05 26.1175 1.0961e-05C27.4827 -0.00124189 28.8458 0.104909 30.1942 0.317482C30.1957 0.317636 30.1971 0.31818 30.1984 0.319057C30.1996 0.319935 30.2005 0.321117 30.2012 0.322486C30.2018 0.323855 30.202 0.325362 30.2019 0.326859C30.2018 0.328356 30.2012 0.32979 30.2004 0.331018C29.4773 1.29944 28.8687 2.34824 28.3866 3.45651C28.3853 3.45727 28.3838 3.45766 28.3823 3.45766C28.3808 3.45766 28.3793 3.45727 28.378 3.45651C27.6323 3.38514 26.8792 3.34576 26.1175 3.34576C14.2739 3.35069 4.51597 12.438 3.44542 24.006C2.12632 38.3217 14.4868 50.393 28.7668 48.7281C38.2639 47.6207 45.9939 40.6425 48.2285 31.5281C48.2291 31.5259 48.2304 31.524 48.2322 31.5227C48.234 31.5213 48.2361 31.5206 48.2384 31.5207C49.0385 31.6743 49.8514 31.7518 50.6662 31.7521C50.9849 31.7533 51.2999 31.7471 51.6137 31.7176Z" fill="black"/>
</g>
<defs>
<clipPath id="clip0_31_28">
<rect width="180" height="52.2338" fill="white"/>
</clipPath>
</defs>
</svg>
